<?xml version="1.0" encoding="UTF-8" standalone="no"?><!DOCTYPE svg PUBLIC "-//W3C//DTD SVG 1.1//EN" "http://www.w3.org/Graphics/SVG/1.1/DTD/svg11.dtd"><svg width="100%" height="100%" viewBox="0 0 292 209" version="1.1" xmlns="http://www.w3.org/2000/svg" xmlns:xlink="http://www.w3.org/1999/xlink" xml:space="preserve" xmlns:serif="http://www.serif.com/" style="fill-rule:evenodd;clip-rule:evenodd;stroke-miterlimit:10;"><rect id="Artboard1" x="0" y="0" width="291.667" height="208.333" style="fill:none;"/><clipPath id="_clip1"><rect x="0" y="0" width="291.667" height="208.333"/></clipPath><g clip-path="url(#_clip1)"><g><path d="M170.964,100.939c16.149,-7.622 30.98,-12.294 44.484,-14.005c13.504,-1.711 25.06,-0.462 34.669,3.757c9.599,4.219 16.621,11.035 21.067,20.447c3.531,7.485 4.918,14.96 4.17,22.405c-0.757,7.445 -3.531,14.841 -8.32,22.168c-4.79,7.328 -11.429,14.291 -19.897,20.88c-8.478,6.59 -18.726,12.727 -30.745,18.402c-15.657,7.396 -30.194,11.881 -43.589,13.464c-13.406,1.584 -24.824,0.246 -34.266,-4.003c-9.442,-4.258 -16.435,-11.192 -20.969,-20.801c-3.373,-7.16 -4.671,-14.517 -3.875,-22.06c0.797,-7.554 3.58,-14.96 8.35,-22.238c4.77,-7.278 11.252,-14.143 19.445,-20.604c8.182,-6.462 18.008,-12.393 29.476,-17.812Zm85.605,-1.741c-6.599,-4.75 -14.104,-7.691 -22.503,-8.832c-8.399,-1.14 -17.703,-0.56 -27.902,1.741c-10.199,2.302 -21.48,6.373 -33.863,12.216c-8.665,4.091 -16.366,8.428 -23.083,13.021c-6.727,4.593 -12.422,9.452 -17.103,14.576c-4.682,5.124 -8.223,10.386 -10.632,15.776c-2.41,5.389 -3.915,11.182 -4.495,17.378c10.209,-22.561 29.752,-40.668 58.618,-54.29c15.382,-7.258 29.771,-11.861 43.166,-13.808c13.406,-1.948 26.005,-1.21 37.797,2.222Zm-71.089,26.26c-16.572,7.819 -29.79,14.91 -39.655,21.264c-9.865,6.363 -16.671,12.363 -20.408,18.018c-3.737,5.655 -4.377,11.104 -1.908,16.336c2.498,5.301 7.17,8.35 13.995,9.137c6.826,0.787 15.855,-0.551 27.077,-4.032c11.221,-3.472 24.873,-9.009 40.953,-16.592c24.185,-11.419 41.121,-21.598 50.789,-30.538c9.668,-8.941 12.599,-17.458 8.783,-25.542c-3.315,-7.023 -11.596,-9.541 -24.844,-7.544c-13.238,2.006 -31.502,8.507 -54.782,19.493Zm84.288,0.089c-1.82,5.39 -4.908,10.386 -9.285,14.959c-4.376,4.574 -10.74,9.383 -19.09,14.419c-8.35,5.035 -19.591,10.887 -33.715,17.555c-13.425,6.334 -24.657,11.193 -33.705,14.576c-9.048,3.373 -16.966,5.537 -23.752,6.472c-6.786,0.934 -12.972,0.727 -18.559,-0.6c8.813,4.917 19.189,6.324 31.099,4.229c11.92,-2.095 27.066,-7.485 45.458,-16.169c10.278,-4.849 18.923,-9.354 25.936,-13.514c7.012,-4.16 13.031,-8.478 18.057,-12.963c5.026,-4.475 8.979,-9.058 11.851,-13.739c2.882,-4.692 4.78,-9.767 5.705,-15.225Z" style="fill:#d2c44f;fill-rule:nonzero;stroke:#fff;stroke-width:1.97px;"/></g><g><path d="M182.864,161.652c-0.797,-7.554 -3.58,-14.96 -8.35,-22.238c-1.446,-2.212 -3.059,-4.376 -4.829,-6.51c-0.964,0.619 -1.938,1.199 -2.941,1.76c3.541,4.278 6.324,8.635 8.311,13.101c2.41,5.389 3.914,11.182 4.495,17.378c-4.515,-9.982 -10.878,-19.09 -19.061,-27.322c-1.269,0.6 -2.537,1.18 -3.796,1.78c-3.089,1.623 -6.187,3.216 -8.931,5.341c1.013,0.619 2.007,1.239 2.951,1.849c9.865,6.363 16.671,12.363 20.408,18.018c3.737,5.655 4.377,11.104 1.908,16.336c-2.498,5.301 -7.17,8.35 -13.995,9.137c-6.826,0.787 -15.855,-0.551 -27.077,-4.032c-2.026,-0.63 -4.376,-1.633 -6.57,-2.4c-0.019,0.039 0.197,0.383 0.187,0.423c0.364,0.305 0.64,0.698 0.817,1.131c0.088,0.059 0.186,0.128 0.275,0.196c1.485,1.151 2.891,2.44 4.495,3.433c1.593,0.993 3.373,1.701 5.104,2.469c3.59,0.944 6.954,1.642 10.061,2.065c6.787,0.934 12.973,0.728 18.559,-0.6c-8.222,4.583 -17.791,6.117 -28.718,4.603c-0.689,0.197 -1.466,0.157 -2.262,-0.217c-0.177,-0.078 -0.345,-0.157 -0.522,-0.236c-11.851,-2.144 -26.869,-7.504 -45.055,-16.09c-10.277,-4.849 -18.922,-9.353 -25.935,-13.513c-7.012,-4.161 -13.032,-8.478 -18.057,-12.963c-5.026,-4.475 -8.98,-9.058 -11.852,-13.74c-2.872,-4.682 -4.78,-9.756 -5.704,-15.215c1.819,5.39 4.908,10.386 9.284,14.959c4.377,4.574 10.74,9.383 19.09,14.419c8.35,5.035 19.592,10.887 33.715,17.555c11.645,5.498 21.628,9.875 29.978,13.14c-0.01,-0.019 -0.01,-0.049 -0.02,-0.069c-0.069,-0.098 -0.128,-0.196 -0.187,-0.304c-0.245,-0.266 -0.432,-0.581 -0.56,-0.905c-0.03,-0.049 -0.059,-0.108 -0.089,-0.168c-0.344,-0.403 -0.56,-0.895 -0.668,-1.406c-0.059,-0.108 -0.109,-0.226 -0.158,-0.344c-0.177,-0.276 -0.295,-0.58 -0.383,-0.895c-0.138,-0.266 -0.236,-0.541 -0.295,-0.826c-7.692,-3.02 -16.169,-6.708 -25.493,-11.104c-24.185,-11.419 -41.121,-21.598 -50.789,-30.538c-9.668,-8.941 -12.599,-17.458 -8.783,-25.542c3.315,-7.023 11.596,-9.541 24.844,-7.544c13.248,1.997 31.512,8.488 54.792,19.484c5.724,2.694 11.025,5.311 15.952,7.838c2.488,-3 5.164,-5.822 8.016,-8.468c1.249,-1.524 2.734,-2.764 4.308,-3.934c-5.646,-3.6 -11.773,-6.973 -18.402,-10.101c-15.382,-7.258 -29.771,-11.861 -43.167,-13.808c-13.395,-1.948 -25.994,-1.21 -37.786,2.222c6.599,-4.75 14.103,-7.691 22.503,-8.832c8.399,-1.14 17.703,-0.56 27.902,1.741c10.199,2.302 21.48,6.373 33.863,12.216c7.74,3.658 14.683,7.514 20.88,11.566c1.042,-0.738 2.144,-1.397 3.334,-1.967c-6.718,-4.613 -14.33,-8.95 -22.877,-12.983c-16.149,-7.622 -30.981,-12.294 -44.484,-14.005c-13.504,-1.711 -25.06,-0.462 -34.669,3.757c-9.6,4.219 -16.622,11.035 -21.067,20.447c-3.531,7.485 -4.918,14.96 -4.17,22.405c0.757,7.445 3.53,14.841 8.32,22.168c4.79,7.328 11.429,14.291 19.897,20.88c8.478,6.59 18.726,12.727 30.744,18.402c15.658,7.396 30.194,11.881 43.59,13.464c13.405,1.584 24.824,0.246 34.266,-4.003c9.441,-4.258 16.434,-11.192 20.968,-20.801c3.384,-7.15 4.682,-14.507 3.885,-22.06Z" style="fill:#cbcbcb;fill-rule:nonzero;stroke:#fff;stroke-width:1.97px;"/></g><g><path d="M151.362,0.06l41.829,0l0,5.114c-4.524,2.046 -8.507,5.488 -11.94,10.327c-3.442,4.839 -6.737,11.753 -9.894,20.742l-33.922,97.546l-5.301,0l-35.77,-102.296l-35.594,102.296l-4.927,0l-35.407,-102.296c-3.157,-9.117 -5.38,-15.097 -6.648,-17.949c-1.269,-2.852 -2.912,-4.957 -4.928,-6.324c-2.006,-1.357 -4.996,-2.036 -8.96,-2.036l0,-5.114l54.507,0l0,5.104c-0.374,-0.059 -0.698,-0.108 -0.974,-0.138c-0.275,-0.029 -0.698,-0.049 -1.249,-0.049c-8.35,0 -12.52,2.538 -12.52,7.613c0,2.665 0.984,7.022 2.97,13.09l24.932,71.945l25.601,-73.43c-1.485,-4.947 -2.97,-8.714 -4.455,-11.281c-1.485,-2.567 -3,-4.376 -4.544,-5.429c-1.544,-1.052 -2.862,-1.652 -3.944,-1.809c-1.082,-0.158 -3.354,-0.325 -6.816,-0.512l0,-5.104l56.405,0l0,5.104c-4.494,0.128 -8.045,0.62 -10.632,1.485c-2.596,0.866 -3.885,2.725 -3.885,5.567c0,2.97 1.466,8.478 4.407,16.523l24.361,68.886l19.956,-56.907c1.249,-3.344 2.292,-6.589 3.137,-9.746c0.846,-3.157 1.269,-6.039 1.269,-8.636c0,-5.566 -1.406,-9.697 -4.219,-12.392c-2.813,-2.695 -7.091,-4.288 -12.835,-4.78l0,-5.114l-0.01,0Zm-130.424,24.401l36.115,104.164c0.432,-0.924 0.816,-1.75 1.16,-2.459c0.344,-0.708 0.679,-1.613 1.023,-2.694c0.344,-1.082 0.511,-2.026 0.511,-2.833c0,-2.291 -0.531,-4.76 -1.573,-7.425l-30.735,-88.753c-2.164,-6.255 -3.856,-10.583 -5.055,-12.992c-1.21,-2.41 -2.695,-4.082 -4.456,-5.016c-1.76,-0.935 -4.258,-1.269 -7.474,-1.023c2.232,1.485 4.052,3.639 5.478,6.452c1.416,2.813 3.088,7.012 5.006,12.579Zm75.475,-1.485l36.852,105.089c1.79,-3.718 2.695,-6.688 2.695,-8.911c0,-1.426 -0.619,-3.895 -1.859,-7.426l-32.21,-91.447c-1.672,-4.583 -2.96,-7.701 -3.855,-9.373c-0.895,-1.672 -2.213,-2.99 -3.944,-3.944c-1.731,-0.954 -4.337,-1.465 -7.799,-1.534c3.658,2.97 7.032,8.822 10.12,17.546Zm84.582,-17.841l-18.381,0c2.97,1.859 5.025,3.944 6.176,6.265c1.141,2.321 1.81,5.183 1.997,8.586c1.298,-3.157 2.753,-5.97 4.366,-8.448c1.594,-2.469 3.551,-4.603 5.842,-6.403Z" style="fill:#173a6b;fill-rule:nonzero;stroke:#fff;stroke-width:1.97px;"/></g><g><g><path d="M246.911,131.251l-75.269,0l0,-5.075l2.125,0c5.714,0 9.825,-0.787 12.313,-2.35c2.489,-1.564 3.983,-3.629 4.475,-6.177c0.492,-2.547 0.738,-6.648 0.738,-12.304l0,-82.595c0,-4.77 -0.384,-8.35 -1.151,-10.74c-0.767,-2.39 -2.508,-4.121 -5.212,-5.203c-2.705,-1.082 -7.131,-1.623 -13.278,-1.623l0,-5.114l72.22,0c6.393,0 12.264,0.855 17.615,2.557c5.35,1.701 9.864,4.062 13.562,7.062c3.688,3.009 6.56,6.52 8.626,10.553c2.055,4.032 3.088,8.399 3.088,13.11c0,5.085 -1.288,9.747 -3.875,13.995c-2.587,4.249 -6.521,7.81 -11.802,10.691c-5.292,2.882 -11.714,4.878 -19.277,6c12.422,1.672 21.952,5.566 28.591,11.664c6.638,6.108 9.963,13.71 9.963,22.828c0,4.711 -1.013,9.068 -3.039,13.061c-2.027,3.993 -4.948,7.474 -8.764,10.415c-3.816,2.941 -8.428,5.223 -13.838,6.836c-5.419,1.603 -11.35,2.409 -17.811,2.409Zm-46.747,-20.329l0,-93.415c0,-4.219 -0.806,-7.337 -2.409,-9.353c-1.604,-2.016 -4.574,-3.019 -8.911,-3.019l-1.869,0c2.852,0.865 4.81,2.341 5.882,4.416c1.072,2.075 1.603,5.439 1.603,10.091l0,91.831c0,4.711 -0.58,8.065 -1.741,10.051c-1.161,1.987 -3.078,3.531 -5.744,4.652l2.587,0c4.632,0 7.563,-1.445 8.783,-4.327c1.209,-2.872 1.819,-6.521 1.819,-10.927Zm14.576,-49.382l17.359,0c8.36,0 14.487,-0.994 18.382,-2.971c3.59,-1.859 6.481,-4.996 8.684,-9.422c2.194,-4.426 3.295,-9.422 3.295,-14.989c0,-4.455 -0.698,-8.615 -2.085,-12.49c-1.396,-3.865 -3.354,-7.042 -5.891,-9.521c-2.665,-2.783 -5.587,-4.563 -8.773,-5.34c-3.187,-0.777 -7.475,-1.161 -12.855,-1.161c-7.051,0 -11.841,1.082 -14.339,3.246c-2.508,2.164 -3.757,5.911 -3.757,11.232l0,41.416l-0.02,0Zm0,5.065l0,45.222c0,3.157 0.374,5.645 1.111,7.475c0.748,1.829 1.997,3.284 3.757,4.366c1.761,1.082 3.944,1.8 6.541,2.135c2.596,0.344 6.157,0.511 10.681,0.511c6.373,0 11.654,-1.131 15.825,-3.393c4.179,-2.262 7.297,-5.537 9.372,-9.845c2.076,-4.298 3.108,-9.55 3.108,-15.736c0,-6.256 -1.18,-11.685 -3.53,-16.297c-2.351,-4.613 -5.715,-8.173 -10.072,-10.681c-4.366,-2.508 -9.579,-3.757 -15.647,-3.757l-21.146,0Zm34.295,0.098c6.187,2.351 10.907,5.999 14.153,10.956c3.246,4.957 4.878,11.478 4.878,19.592c0,15.471 -6.216,25.375 -18.657,29.712c7.986,-0.924 14.035,-4.042 18.146,-9.333c4.111,-5.292 6.176,-12.521 6.176,-21.677c0,-8.478 -2.183,-15.333 -6.54,-20.566c-4.377,-5.232 -10.425,-8.133 -18.156,-8.684Zm1.112,-5.39c14.113,-3.649 21.165,-12.962 21.165,-27.941c0,-4.888 -0.807,-9.363 -2.41,-13.416c-1.613,-4.052 -4.042,-7.376 -7.288,-9.982c-3.245,-2.607 -7.258,-4.111 -12.018,-4.554c5.075,2.105 8.969,5.675 11.694,10.72c2.724,5.046 4.081,11.124 4.081,18.245c0,13.002 -5.075,21.981 -15.224,26.928Z" style="fill:#173a6b;fill-rule:nonzero;stroke:#fff;stroke-width:1.97px;"/></g></g></g></svg>